# xmcd CD database file
#
# Track frame offsets:
#	182
#	11160
#	25255
#	40427
#	50252
#	61252
#	73712
#	86855
#	99530
#	110067
#	122692
#	132602
#
# Disc length: 1944 seconds
#
# Revision: 0
# Processed by: cddbd v1.4PL0 Copyright (c) Steve Scherf et al.
# Submitted via: CDex 1.50Beta3
#
DISCID=ae07960c
DTITLE=Howlin' Wolf - Little Red Rooster and More Blues Originals
DYEAR=1900
DGENRE=Blues
TTITLE0=Little Red Rooster
TTITLE1=My Life
TTITLE2=Goin' Down Slow
TTITLE3=Down In The Bottom
TTITLE4=You'll Be Mine
TTITLE5=Little Baby
TTITLE6=Worried About You
TTITLE7=Killing Floor
TTITLE8=Who's Been Talking
TTITLE9=My Mind Is Ramblin'
TTITLE10=The Natchez Burnin'
TTITLE11=Tail Dragger
EXTD=
EXTT0=
EXTT1=
EXTT2=
EXTT3=
EXTT4=
EXTT5=
EXTT6=
EXTT7=
EXTT8=
EXTT9=
EXTT10=
EXTT11=
PLAYORDER=
